<mxfile host="app.diagrams.net" modified="2024-04-15T21:51:46.034Z" agent="Mozilla/5.0 (X11; Linux x86_64) AppleWebKit/537.36 (KHTML, like Gecko) Chrome/123.0.0.0 Safari/537.36" etag="jzXpb7OnO9LjuCJ4VMyb" version="24.2.5" type="github">
  <diagram name="Page-1" id="cqx54OTji2teAWUga4x_">
    <mxGraphModel dx="2516" dy="1402" grid="1" gridSize="10" guides="1" tooltips="1" connect="1" arrows="1" fold="1" page="1" pageScale="1" pageWidth="1100" pageHeight="850" math="0" shadow="0">
      <root>
        <mxCell id="0" />
        <mxCell id="1" parent="0" />
        <mxCell id="ZSHR-8oYm6Ss-KnPcfVc-1" value="" style="triangle;whiteSpace=wrap;html=1;rotation=91;fillColor=#dae8fc;strokeColor=#6c8ebf;" vertex="1" parent="1">
          <mxGeometry x="150.53" y="249.66" width="60" height="40" as="geometry" />
        </mxCell>
        <mxCell id="ZSHR-8oYm6Ss-KnPcfVc-2" value="" style="triangle;whiteSpace=wrap;html=1;rotation=91;fillColor=#fff2cc;strokeColor=#d6b656;" vertex="1" parent="1">
          <mxGeometry x="200" y="249.66" width="60" height="40" as="geometry" />
        </mxCell>
        <mxCell id="ZSHR-8oYm6Ss-KnPcfVc-9" value="" style="endArrow=none;html=1;rounded=0;" edge="1" parent="1">
          <mxGeometry width="50" height="50" relative="1" as="geometry">
            <mxPoint x="115" y="239" as="sourcePoint" />
            <mxPoint x="920" y="239" as="targetPoint" />
          </mxGeometry>
        </mxCell>
        <mxCell id="ZSHR-8oYm6Ss-KnPcfVc-12" value="" style="triangle;whiteSpace=wrap;html=1;rotation=91;fillColor=#dae8fc;strokeColor=#6c8ebf;" vertex="1" parent="1">
          <mxGeometry x="250" y="249.65999999999997" width="60" height="40" as="geometry" />
        </mxCell>
        <mxCell id="ZSHR-8oYm6Ss-KnPcfVc-13" value="" style="triangle;whiteSpace=wrap;html=1;rotation=91;" vertex="1" parent="1">
          <mxGeometry x="299.47" y="249.65999999999997" width="60" height="40" as="geometry" />
        </mxCell>
        <mxCell id="ZSHR-8oYm6Ss-KnPcfVc-14" value="" style="triangle;whiteSpace=wrap;html=1;rotation=91;fillColor=#dae8fc;strokeColor=#6c8ebf;" vertex="1" parent="1">
          <mxGeometry x="350" y="249.65999999999997" width="60" height="40" as="geometry" />
        </mxCell>
        <mxCell id="ZSHR-8oYm6Ss-KnPcfVc-15" value="" style="triangle;whiteSpace=wrap;html=1;rotation=91;fillColor=#fff2cc;strokeColor=#d6b656;" vertex="1" parent="1">
          <mxGeometry x="399.47" y="249.65999999999997" width="60" height="40" as="geometry" />
        </mxCell>
        <mxCell id="ZSHR-8oYm6Ss-KnPcfVc-16" value="" style="triangle;whiteSpace=wrap;html=1;rotation=91;fillColor=#dae8fc;strokeColor=#6c8ebf;" vertex="1" parent="1">
          <mxGeometry x="450" y="249.65999999999997" width="60" height="40" as="geometry" />
        </mxCell>
        <mxCell id="ZSHR-8oYm6Ss-KnPcfVc-18" value="&lt;b&gt;&lt;font style=&quot;font-size: 16px;&quot;&gt;1&lt;/font&gt;&lt;/b&gt;" style="text;html=1;align=center;verticalAlign=middle;whiteSpace=wrap;rounded=0;" vertex="1" parent="1">
          <mxGeometry x="299.47" y="240" width="60" height="30" as="geometry" />
        </mxCell>
        <mxCell id="ZSHR-8oYm6Ss-KnPcfVc-19" value="" style="triangle;whiteSpace=wrap;html=1;rotation=91;fillColor=#fff2cc;strokeColor=#d6b656;" vertex="1" parent="1">
          <mxGeometry x="510" y="249.65999999999997" width="60" height="40" as="geometry" />
        </mxCell>
        <mxCell id="ZSHR-8oYm6Ss-KnPcfVc-20" value="" style="triangle;whiteSpace=wrap;html=1;rotation=91;fillColor=#dae8fc;strokeColor=#6c8ebf;" vertex="1" parent="1">
          <mxGeometry x="559.47" y="249.65999999999997" width="60" height="40" as="geometry" />
        </mxCell>
        <mxCell id="ZSHR-8oYm6Ss-KnPcfVc-21" value="" style="triangle;whiteSpace=wrap;html=1;rotation=91;fillColor=#fff2cc;strokeColor=#d6b656;" vertex="1" parent="1">
          <mxGeometry x="609.47" y="249.65999999999997" width="60" height="40" as="geometry" />
        </mxCell>
        <mxCell id="ZSHR-8oYm6Ss-KnPcfVc-22" value="" style="triangle;whiteSpace=wrap;html=1;rotation=91;" vertex="1" parent="1">
          <mxGeometry x="658.94" y="249.65999999999997" width="60" height="40" as="geometry" />
        </mxCell>
        <mxCell id="ZSHR-8oYm6Ss-KnPcfVc-23" value="" style="triangle;whiteSpace=wrap;html=1;rotation=91;fillColor=#fff2cc;strokeColor=#d6b656;" vertex="1" parent="1">
          <mxGeometry x="709.47" y="249.65999999999997" width="60" height="40" as="geometry" />
        </mxCell>
        <mxCell id="ZSHR-8oYm6Ss-KnPcfVc-24" value="" style="triangle;whiteSpace=wrap;html=1;rotation=91;fillColor=#dae8fc;strokeColor=#6c8ebf;" vertex="1" parent="1">
          <mxGeometry x="758.94" y="249.65999999999997" width="60" height="40" as="geometry" />
        </mxCell>
        <mxCell id="ZSHR-8oYm6Ss-KnPcfVc-25" value="" style="triangle;whiteSpace=wrap;html=1;rotation=91;fillColor=#fff2cc;strokeColor=#d6b656;" vertex="1" parent="1">
          <mxGeometry x="809.47" y="249.65999999999997" width="60" height="40" as="geometry" />
        </mxCell>
        <mxCell id="ZSHR-8oYm6Ss-KnPcfVc-26" value="&lt;b&gt;&lt;font style=&quot;font-size: 16px;&quot;&gt;2&lt;/font&gt;&lt;/b&gt;" style="text;html=1;align=center;verticalAlign=middle;whiteSpace=wrap;rounded=0;" vertex="1" parent="1">
          <mxGeometry x="658.94" y="240" width="60" height="30" as="geometry" />
        </mxCell>
        <mxCell id="ZSHR-8oYm6Ss-KnPcfVc-27" value="" style="endArrow=none;html=1;rounded=0;" edge="1" parent="1">
          <mxGeometry width="50" height="50" relative="1" as="geometry">
            <mxPoint x="160" y="230" as="sourcePoint" />
            <mxPoint x="160" y="160" as="targetPoint" />
          </mxGeometry>
        </mxCell>
        <mxCell id="ZSHR-8oYm6Ss-KnPcfVc-28" value="" style="endArrow=none;html=1;rounded=0;" edge="1" parent="1">
          <mxGeometry width="50" height="50" relative="1" as="geometry">
            <mxPoint x="509" y="230" as="sourcePoint" />
            <mxPoint x="509" y="160" as="targetPoint" />
          </mxGeometry>
        </mxCell>
        <mxCell id="ZSHR-8oYm6Ss-KnPcfVc-29" value="" style="endArrow=none;html=1;rounded=0;" edge="1" parent="1">
          <mxGeometry width="50" height="50" relative="1" as="geometry">
            <mxPoint x="868.47" y="230" as="sourcePoint" />
            <mxPoint x="868.47" y="160" as="targetPoint" />
          </mxGeometry>
        </mxCell>
      </root>
    </mxGraphModel>
  </diagram>
</mxfile>
